# generated from PmQm by Jehee Lee
:FULLY-SPECIFIED
:DEGREES
252
root 28.5888 38.343 -36.3655 -16.3696 -82.054 17.5584
RightUpLeg -22.3802 -1.13174 -2.78903
RightLeg 0.662824 -21.2189 -3.31945
RightFoot 12.5009 0.259491 -0.796849
RightToes -0.000541893 -0.000659172 -0.000493268
Spine 1.0222 -1.41548 0.447831
Spine1 1.92511 -2.76174 -0.268887
HEad 20.0918 -0.996407 -2.12669
LeftShoulder1 -3.88251e-019 -0 -3.92111e-022
LeftArm -33.8063 5.08025 -84.2696
LeftForeArm 39.0881 2.37089 -2.55461
LeftHand -0.740193 -4.49464 8.97092
RightShoulder 7.45443e-017 -2.42657e-020 1.96277e-018
RightArm -26.5866 -13.4575 73.5851
RightForeArm 29.4737 6.07845 6.88289
RightHand -1.07905 9.88747 -8.56337
LeftUpLeg 6.74827 3.06212 -5.3441
LeftLeg 16.4946 3.81595 1.48206
LeftFoot -19.234 0.139809 0.360436
LeftToes 3.91355e-005 3.11907e-005 -4.10385e-006
253
root 27.0535 38.461 -36.5381 -5.34274 -82.9548 6.69205
RightUpLeg -21.1145 -0.0887323 -1.0029
RightLeg 1.89445 -21.1927 -3.06441
RightFoot 15.675 0.745569 -2.65537
RightToes -0.000541893 -0.000659172 -0.000493268
Spine 0.851109 -1.5795 1.38552
Spine1 1.52694 -3.05433 1.33982
HEad 21.5793 -0.161874 -2.97775
LeftShoulder1 -3.88251e-019 -0 -3.92111e-022
LeftArm -35.1209 5.81302 -85.6244
LeftForeArm 39.8437 2.04456 -1.02869
LeftHand -0.754615 -4.539 9.10089
RightShoulder 7.45443e-017 -2.42657e-020 1.96277e-018
RightArm -26.7245 -13.9416 73.1475
RightForeArm 29.5156 5.95992 6.70366
RightHand -1.09224 9.93011 -8.64085
LeftUpLeg 8.15936 5.15837 -2.07886
LeftLeg 18.1485 1.21142 0.756565
LeftFoot -18.1182 0.0589315 -0.835326
LeftToes 3.91355e-005 3.11907e-005 -4.10385e-006
254
root 25.5705 38.6815 -36.7676 16.8685 -83.7774 -15.0674
RightUpLeg -19.9511 1.64004 1.78075
RightLeg 3.03897 -21.6249 -2.82217
RightFoot 13.4869 0.941711 -3.85804
RightToes -0.000541893 -0.000659172 -0.000493268
Spine 0.581622 -1.67335 2.77784
Spine1 0.90198 -3.17869 3.66301
HEad 22.7012 0.713932 -3.92891
LeftShoulder1 -3.88251e-019 -0 -3.92111e-022
LeftArm -36.6206 6.55999 -87.1467
LeftForeArm 40.8522 1.79184 0.782563
LeftHand -0.749313 -4.26996 9.28185
RightShoulder 7.45443e-017 -2.42657e-020 1.96277e-018
RightArm -26.948 -14.0204 72.4211
RightForeArm 29.7336 5.42087 6.14767
RightHand -1.04495 9.69621 -8.40404
LeftUpLeg 7.79238 7.20303 2.1848
LeftLeg 22.2044 -1.10685 -0.172646
LeftFoot -15.6336 -0.003685770001 -2.6098
LeftToes 3.91355e-005 3.11907e-005 -4.10385e-006
255
root 24.2407 38.8261 -37.0101 37.7968 -84.013 -35.6629
RightUpLeg -18.7044 2.9409 4.21403
RightLeg 4.20492 -21.553 -2.59238
RightFoot 10.4113 0.871938 -4.16036
RightToes -0.000541893 -0.000659172 -0.000493268
Spine 0.532904 -1.84615 3.99506
Spine1 0.704904 -3.42516 5.4161
HEad 22.44 1.52774 -4.37395
LeftShoulder1 -3.88251e-019 -0 -3.92111e-022
LeftArm -36.7189 7.33653 -88.145
LeftForeArm 42.7788 1.67502 1.44271
LeftHand -0.576926 -3.97283 7.42153
RightShoulder 7.45443e-017 -2.42657e-020 1.96277e-018
RightArm -27.1392 -13.5016 71.9596
RightForeArm 29.1437 5.02212 5.5391
RightHand -0.988581 9.34786 -8.14831
LeftUpLeg 5.25712 8.71892 5.39856
LeftLeg 29.6471 -1.5989 -0.639844
LeftFoot -11.0822 0.074898 -3.74531
LeftToes 3.91355e-005 3.11907e-005 -4.10385e-006
256
root 23.0986 38.8731 -37.2301 48.7277 -83.8846 -46.7141
RightUpLeg -17.4535 3.61275 5.836
RightLeg 5.71877 -21.4295 -2.99657
RightFoot 8.35791 0.747815 -3.97029
RightToes -0.000541893 -0.000659172 -0.000493268
Spine 0.826749 -2.14502 4.79797
Spine1 1.20973 -3.91417 6.3295
HEad 20.5729 1.80724 -4.14004
LeftShoulder1 -3.88251e-019 -0 -3.92111e-022
LeftArm -35.3097 7.5337 -88.1449
LeftForeArm 45.2725 1.6583 0.75329
LeftHand -0.37003 -4.06621 4.82532
RightShoulder 7.45443e-017 -2.42657e-020 1.96277e-018
RightArm -27.0489 -13.0231 71.6591
RightForeArm 27.2368 5.64324 5.81241
RightHand -1.03792 9.28172 -8.56831
LeftUpLeg 1.03305 9.06059 7.01558
LeftLeg 39.6074 -0.286087 0.139483
LeftFoot -2.82059 0.314431 -3.99694
LeftToes 3.91355e-005 3.11907e-005 -4.10385e-006
